<svg width="297" height="114" viewBox="0 0 297 114" version="1.1" xmlns="http://www.w3.org/2000/svg" xmlns:xlink="http://www.w3.org/1999/xlink">
<title>e.tsn;</title>
<desc>Created using Figma</desc>
<g id="Canvas" transform="translate(-1687 826)">
<g id="e.tsn;">
<use xlink:href="#path0_fill" transform="translate(1666 -915)" fill="#0D1217"/>
</g>
</g>
<defs>
<path id="path0_fill" d="M 64.7734 144.25C 63.4401 146.083 61.7734 147.583 59.7734 148.75C 57.7734 149.917 55.6068 150.917 53.2734 151.75C 50.9401 152.417 48.5234 152.917 46.0234 153.25C 43.6901 153.583 41.6068 153.833 39.7734 154C 39.2734 157.5 38.9401 160.917 38.7734 164.25C 38.7734 167.583 38.9401 170.583 39.2734 173.25C 39.7734 175.917 40.4401 178.167 41.2734 180C 42.2734 181.833 43.6068 183 45.2734 183.5C 47.4401 184.167 49.7734 183.833 52.2734 182.5C 54.7734 181 57.1901 179 59.5234 176.5C 61.8568 174 64.1068 171.083 66.2734 167.75C 68.4401 164.417 70.3568 161.25 72.0234 158.25C 73.6901 155.083 75.1068 152.25 76.2734 149.75C 77.4401 147.083 78.1901 145.167 78.5234 144C 79.0234 142.5 79.7734 141.5 80.7734 141C 81.9401 140.5 83.0234 140.333 84.0234 140.5C 85.0234 140.667 85.8568 141.25 86.5234 142.25C 87.1901 143.083 87.3568 144.25 87.0234 145.75C 86.6901 146.75 86.1068 148.75 85.2734 151.75C 84.4401 154.583 83.1901 157.833 81.5234 161.5C 80.0234 165.167 78.1068 169 75.7734 173C 73.6068 176.833 70.9401 180.417 67.7734 183.75C 64.6068 186.917 60.9401 189.583 56.7734 191.75C 52.7734 193.917 48.2734 195 43.2734 195C 37.2734 195 32.6068 192.917 29.2734 188.75C 25.9401 184.583 23.6901 179.333 22.5234 173C 21.3568 166.667 21.1901 159.917 22.0234 152.75C 22.6901 145.417 24.1068 138.583 26.2734 132.25C 28.6068 125.917 31.4401 120.667 34.7734 116.5C 38.2734 112.333 42.1068 110.25 46.2734 110.25C 50.2734 110.25 53.7734 111.667 56.7734 114.5C 59.9401 117.167 62.3568 120.333 64.0234 124C 65.6901 127.667 66.6068 131.417 66.7734 135.25C 67.1068 139.083 66.4401 142.083 64.7734 144.25ZM 49.2734 122C 48.1068 122.5 46.8568 124.667 45.5234 128.5C 44.1901 132.167 42.9401 136.667 41.7734 142C 43.6068 142 45.4401 141.833 47.2734 141.5C 49.1068 141 50.4401 140.083 51.2734 138.75C 51.9401 137.75 52.3568 136.333 52.5234 134.5C 52.6901 132.5 52.6068 130.5 52.2734 128.5C 52.1068 126.5 51.6901 124.833 51.0234 123.5C 50.5234 122.167 49.9401 121.667 49.2734 122ZM 116.449 172.5C 116.116 176.667 114.283 179.667 110.949 181.5C 107.783 183.167 104.449 183.583 100.949 182.75C 97.6159 181.917 94.5326 180.25 91.6992 177.75C 89.0326 175.083 87.8659 171.833 88.1992 168C 88.5326 163.667 90.1159 160.667 92.9492 159C 95.9492 157.167 99.3659 156.5 103.199 157C 107.033 157.833 110.283 159.667 112.949 162.5C 115.616 165.333 116.783 168.667 116.449 172.5ZM 125.389 106C 125.389 104.833 125.389 103.75 125.389 102.75C 125.555 101.583 125.639 100.583 125.639 99.75C 125.639 95.75 126.722 93 128.889 91.5C 131.055 89.8333 133.389 89.0833 135.889 89.25C 138.389 89.4167 140.555 90.3333 142.389 92C 144.389 93.6667 145.139 95.8333 144.639 98.5L 143.389 105L 149.389 105C 152.555 105 154.805 105.583 156.139 106.75C 157.639 107.75 158.389 108.917 158.389 110.25C 158.389 111.417 157.639 112.5 156.139 113.5C 154.639 114.5 152.555 115 149.889 115L 142.389 115C 141.722 121 141.139 127.667 140.639 135C 140.139 142.167 139.805 149 139.639 155.5C 139.472 161.833 139.555 167.167 139.889 171.5C 140.222 175.667 140.972 177.75 142.139 177.75C 143.139 177.75 144.472 176.25 146.139 173.25C 147.972 170.25 149.805 166.833 151.639 163C 153.472 159 155.139 155.167 156.639 151.5C 158.139 147.667 159.139 145.083 159.639 143.75C 159.972 142.25 160.722 141.25 161.889 140.75C 163.055 140.25 164.139 140.167 165.139 140.5C 166.305 140.667 167.222 141.25 167.889 142.25C 168.722 143.083 168.889 144.25 168.389 145.75C 167.389 149.083 166.055 153.417 164.389 158.75C 162.722 164.083 160.639 169.25 158.139 174.25C 155.639 179.25 152.639 183.583 149.139 187.25C 145.639 190.917 141.472 192.75 136.639 192.75C 133.472 192.75 130.889 191.5 128.889 189C 126.889 186.5 125.389 183.25 124.389 179.25C 123.389 175.083 122.805 170.333 122.639 165C 122.305 159.667 122.222 154.167 122.389 148.5C 122.555 142.833 122.889 137.167 123.389 131.5C 123.889 125.667 124.305 120.333 124.639 115.5L 118.639 115.5C 115.972 115.5 113.972 115 112.639 114C 111.139 113 110.389 111.917 110.389 110.75C 110.222 109.583 110.805 108.5 112.139 107.5C 113.472 106.5 115.639 106 118.639 106L 125.389 106ZM 197.754 122.5C 199.921 121.333 202.087 121.333 204.254 122.5C 206.421 123.667 208.087 125.333 209.254 127.5C 210.421 129.5 210.754 131.667 210.254 134C 209.921 136.167 208.254 137.667 205.254 138.5C 202.587 139.167 199.754 139.833 196.754 140.5C 193.921 141.167 191.171 141.75 188.504 142.25C 186.004 142.75 183.837 143.25 182.004 143.75C 180.171 144.083 179.004 144.25 178.504 144.25C 178.837 144.25 180.587 144.75 183.754 145.75C 187.087 146.583 190.587 148.083 194.254 150.25C 197.921 152.25 201.254 155 204.254 158.5C 207.254 162 208.754 166.417 208.754 171.75C 208.754 177.583 206.754 182.25 202.754 185.75C 198.754 189.083 194.087 191.333 188.754 192.5C 185.421 193 182.171 193 179.004 192.5C 176.004 192 173.254 190.917 170.754 189.25C 168.421 187.75 166.504 185.667 165.004 183C 163.504 180.167 162.754 176.833 162.754 173C 162.754 169.833 163.754 167.333 165.754 165.5C 167.921 163.667 170.171 162.5 172.504 162C 175.004 161.5 177.171 161.75 179.004 162.75C 181.004 163.75 181.837 165.5 181.504 168C 180.671 173.167 180.921 176.917 182.254 179.25C 183.587 181.583 184.921 182.75 186.254 182.75C 187.921 182.75 189.254 182.167 190.254 181C 191.421 179.833 192.087 178.333 192.254 176.5C 192.421 174.5 192.087 172.333 191.254 170C 190.421 167.5 189.087 165 187.254 162.5C 185.754 160.333 183.837 158.417 181.504 156.75C 179.337 154.917 177.087 153.417 174.754 152.25C 172.587 150.917 170.421 149.917 168.254 149.25C 166.087 148.417 164.337 147.833 163.004 147.5C 161.504 147.167 160.337 146.167 159.504 144.5C 158.837 142.667 158.587 140.833 158.754 139C 158.754 137 159.337 135.25 160.504 133.75C 161.837 132.083 163.754 131.25 166.254 131.25C 171.254 131.25 176.587 130.5 182.254 129C 188.087 127.333 193.254 125.167 197.754 122.5ZM 218.609 132C 219.109 128.667 220.526 126.167 222.859 124.5C 225.193 122.833 227.526 121.917 229.859 121.75C 232.359 121.583 234.526 122.083 236.359 123.25C 238.193 124.417 238.943 126.25 238.609 128.75C 238.276 131.083 237.776 133.75 237.109 136.75C 236.609 139.583 236.109 142.5 235.609 145.5C 235.109 148.333 234.693 151.083 234.359 153.75C 234.193 156.25 234.193 158.333 234.359 160C 235.693 155.5 237.193 151.5 238.859 148C 240.693 144.333 242.526 141.25 244.359 138.75C 245.693 137.083 247.526 135.833 249.859 135C 252.193 134 254.443 133.583 256.609 133.75C 258.776 133.75 260.526 134.333 261.859 135.5C 263.193 136.667 263.443 138.333 262.609 140.5C 262.109 142 261.609 144.333 261.109 147.5C 260.776 150.667 260.609 153.917 260.609 157.25C 260.609 160.417 260.776 163.25 261.109 165.75C 261.443 168.083 262.026 169.25 262.859 169.25C 263.859 169.25 265.193 168.333 266.859 166.5C 268.526 164.667 270.193 162.5 271.859 160C 273.526 157.333 275.026 154.583 276.359 151.75C 277.859 148.75 278.943 146.167 279.609 144C 279.943 142.5 280.609 141.5 281.609 141C 282.776 140.5 283.859 140.333 284.859 140.5C 285.859 140.667 286.693 141.25 287.359 142.25C 288.026 143.083 288.193 144.25 287.859 145.75C 287.359 148.083 286.193 151.25 284.359 155.25C 282.526 159.25 280.359 163.167 277.859 167C 275.359 170.833 272.609 174.25 269.609 177.25C 266.609 180.083 263.693 181.5 260.859 181.5C 256.026 181.5 252.526 180.25 250.359 177.75C 248.359 175.083 247.026 172.167 246.359 169C 245.693 165.667 245.443 162.5 245.609 159.5C 245.776 156.333 245.693 154.333 245.359 153.5C 244.526 153.833 243.609 155 242.609 157C 241.776 159 240.943 161.333 240.109 164C 239.276 166.667 238.526 169.5 237.859 172.5C 237.193 175.333 236.776 177.75 236.609 179.75C 236.276 181.917 235.109 183.583 233.109 184.75C 231.276 185.75 229.193 186.25 226.859 186.25C 224.693 186.25 222.693 185.667 220.859 184.5C 219.026 183.333 218.193 181.5 218.359 179C 218.526 176.167 218.526 172.75 218.359 168.75C 218.193 164.75 218.026 160.583 217.859 156.25C 217.693 151.75 217.609 147.417 217.609 143.25C 217.609 139.083 217.943 135.333 218.609 132ZM 317.621 128C 317.288 132.167 315.454 135.167 312.121 137C 308.954 138.667 305.621 139.083 302.121 138.25C 298.788 137.417 295.704 135.75 292.871 133.25C 290.204 130.583 289.038 127.333 289.371 123.5C 289.704 119.167 291.288 116.167 294.121 114.5C 297.121 112.667 300.538 112 304.371 112.5C 308.204 113.333 311.454 115.167 314.121 118C 316.788 120.833 317.954 124.167 317.621 128ZM 312.621 169C 312.954 171.167 312.371 174.417 310.871 178.75C 309.538 182.917 307.704 187 305.371 191C 303.038 195 300.454 198.167 297.621 200.5C 294.954 203 292.454 203.417 290.121 201.75C 289.288 201.083 289.121 200.083 289.621 198.75C 290.288 197.417 290.954 195.167 291.621 192C 292.454 189 292.954 184.917 293.121 179.75C 293.288 174.583 292.538 167.833 290.871 159.5C 290.538 157.667 291.371 156.667 293.371 156.5C 295.371 156.167 297.704 156.5 300.371 157.5C 303.038 158.5 305.621 160.083 308.121 162.25C 310.621 164.25 312.121 166.5 312.621 169Z"/>
</defs>
</svg>
