<svg width="172" height="66" viewBox="0 0 172 66" version="1.1" xmlns="http://www.w3.org/2000/svg" xmlns:xlink="http://www.w3.org/1999/xlink">
<title>e.tsn;</title>
<desc>Created using Figma</desc>
<g id="Canvas" transform="translate(-962 460)">
<g id="e.tsn;">
<use xlink:href="#path0_fill" transform="translate(947 -511)" fill="#F9FAFC"/>
</g>
</g>
<defs>
<path id="path0_fill" d="M 40.8415 82.8C 40.0735 83.856 39.1135 84.72 37.9615 85.392C 36.8095 86.064 35.5615 86.64 34.2175 87.12C 32.8735 87.504 31.4815 87.792 30.0415 87.984C 28.6975 88.176 27.4975 88.32 26.4415 88.416C 26.1535 90.432 25.9615 92.4 25.8655 94.32C 25.8655 96.24 25.9615 97.968 26.1535 99.504C 26.4415 101.04 26.8255 102.336 27.3055 103.392C 27.8815 104.448 28.6495 105.12 29.6095 105.408C 30.8575 105.792 32.2015 105.6 33.6415 104.832C 35.0815 103.968 36.4735 102.816 37.8175 101.376C 39.1615 99.936 40.4575 98.256 41.7055 96.336C 42.9535 94.416 44.0575 92.592 45.0175 90.864C 45.9775 89.04 46.7935 87.408 47.4655 85.968C 48.1375 84.432 48.5695 83.328 48.7615 82.656C 49.0495 81.792 49.4815 81.216 50.0575 80.928C 50.7295 80.64 51.3535 80.544 51.9295 80.64C 52.5055 80.736 52.9855 81.072 53.3695 81.648C 53.7535 82.128 53.8495 82.8 53.6575 83.664C 53.4655 84.24 53.1295 85.392 52.6495 87.12C 52.1695 88.752 51.4495 90.624 50.4895 92.736C 49.6255 94.848 48.5215 97.056 47.1775 99.36C 45.9295 101.568 44.3935 103.632 42.5695 105.552C 40.7455 107.376 38.6335 108.912 36.2335 110.16C 33.9295 111.408 31.3375 112.032 28.4575 112.032C 25.0015 112.032 22.3135 110.832 20.3935 108.432C 18.4735 106.032 17.1775 103.008 16.5055 99.36C 15.8335 95.712 15.7375 91.824 16.2175 87.696C 16.6015 83.472 17.4175 79.536 18.6655 75.888C 20.0095 72.24 21.6415 69.216 23.5615 66.816C 25.5775 64.416 27.7855 63.216 30.1855 63.216C 32.4895 63.216 34.5055 64.032 36.2335 65.664C 38.0575 67.2 39.4495 69.024 40.4095 71.136C 41.3695 73.248 41.8975 75.408 41.9935 77.616C 42.1855 79.824 41.8015 81.552 40.8415 82.8ZM 31.9135 69.984C 31.2415 70.272 30.5215 71.52 29.7535 73.728C 28.9855 75.84 28.2655 78.432 27.5935 81.504C 28.6495 81.504 29.7055 81.408 30.7615 81.216C 31.8175 80.928 32.5855 80.4 33.0655 79.632C 33.4495 79.056 33.6895 78.24 33.7855 77.184C 33.8815 76.032 33.8335 74.88 33.6415 73.728C 33.5455 72.576 33.3055 71.616 32.9215 70.848C 32.6335 70.08 32.2975 69.792 31.9135 69.984ZM 70.6068 99.072C 70.4148 101.472 69.3588 103.2 67.4387 104.256C 65.6148 105.216 63.6947 105.456 61.6788 104.976C 59.7587 104.496 57.9827 103.536 56.3507 102.096C 54.8147 100.56 54.1427 98.688 54.3347 96.48C 54.5267 93.984 55.4388 92.256 57.0708 91.296C 58.7988 90.24 60.7668 89.856 62.9748 90.144C 65.1827 90.624 67.0547 91.68 68.5907 93.312C 70.1268 94.944 70.7987 96.864 70.6068 99.072ZM 75.7559 60.768C 75.7559 60.096 75.7559 59.472 75.7559 58.896C 75.8519 58.224 75.8999 57.648 75.8999 57.168C 75.8999 54.864 76.5239 53.28 77.7719 52.416C 79.0199 51.456 80.3639 51.024 81.8039 51.12C 83.2439 51.216 84.4919 51.744 85.5479 52.704C 86.6999 53.664 87.1319 54.912 86.8439 56.448L 86.1239 60.192L 89.5799 60.192C 91.4039 60.192 92.6999 60.528 93.4679 61.2C 94.3319 61.776 94.7639 62.448 94.7639 63.216C 94.7639 63.888 94.3319 64.512 93.4679 65.088C 92.6039 65.664 91.4039 65.952 89.8679 65.952L 85.5479 65.952C 85.1639 69.408 84.8279 73.248 84.5399 77.472C 84.2519 81.6 84.0599 85.536 83.9639 89.28C 83.8679 92.928 83.9159 96 84.1079 98.496C 84.2999 100.896 84.7319 102.096 85.4039 102.096C 85.9799 102.096 86.7479 101.232 87.7079 99.504C 88.7639 97.776 89.8199 95.808 90.8759 93.6C 91.9319 91.296 92.8919 89.088 93.7559 86.976C 94.6199 84.768 95.1959 83.28 95.4839 82.512C 95.6759 81.648 96.1079 81.072 96.7799 80.784C 97.4519 80.496 98.0759 80.448 98.6519 80.64C 99.3239 80.736 99.8519 81.072 100.236 81.648C 100.716 82.128 100.812 82.8 100.524 83.664C 99.9479 85.584 99.1799 88.08 98.2199 91.152C 97.2599 94.224 96.0599 97.2 94.6199 100.08C 93.1799 102.96 91.4519 105.456 89.4359 107.568C 87.4199 109.68 85.0199 110.736 82.2359 110.736C 80.4119 110.736 78.9239 110.016 77.7719 108.576C 76.6199 107.136 75.7559 105.264 75.1799 102.96C 74.6039 100.56 74.2679 97.824 74.1719 94.752C 73.9799 91.68 73.9319 88.512 74.0279 85.248C 74.1239 81.984 74.3159 78.72 74.6039 75.456C 74.8919 72.096 75.1319 69.024 75.3239 66.24L 71.8679 66.24C 70.3319 66.24 69.1799 65.952 68.4119 65.376C 67.5479 64.8 67.1159 64.176 67.1159 63.504C 67.0199 62.832 67.3559 62.208 68.1239 61.632C 68.8919 61.056 70.1399 60.768 71.8679 60.768L 75.7559 60.768ZM 117.438 70.272C 118.686 69.6 119.934 69.6 121.182 70.272C 122.43 70.944 123.39 71.904 124.062 73.152C 124.734 74.304 124.926 75.552 124.638 76.896C 124.446 78.144 123.486 79.008 121.758 79.488C 120.222 79.872 118.59 80.256 116.862 80.64C 115.23 81.024 113.646 81.36 112.11 81.648C 110.67 81.936 109.422 82.224 108.366 82.512C 107.31 82.704 106.638 82.8 106.35 82.8C 106.542 82.8 107.55 83.088 109.374 83.664C 111.294 84.144 113.31 85.008 115.422 86.256C 117.534 87.408 119.454 88.992 121.182 91.008C 122.91 93.024 123.774 95.568 123.774 98.64C 123.774 102 122.622 104.688 120.318 106.704C 118.014 108.624 115.326 109.92 112.254 110.592C 110.334 110.88 108.462 110.88 106.638 110.592C 104.91 110.304 103.326 109.68 101.886 108.72C 100.542 107.856 99.4383 106.656 98.5743 105.12C 97.7103 103.488 97.2782 101.568 97.2782 99.36C 97.2782 97.536 97.8542 96.096 99.0062 95.04C 100.254 93.984 101.55 93.312 102.894 93.024C 104.334 92.736 105.582 92.88 106.638 93.456C 107.79 94.032 108.27 95.04 108.078 96.48C 107.598 99.456 107.742 101.616 108.51 102.96C 109.278 104.304 110.046 104.976 110.814 104.976C 111.774 104.976 112.542 104.64 113.118 103.968C 113.79 103.296 114.174 102.432 114.27 101.376C 114.366 100.224 114.174 98.976 113.694 97.632C 113.214 96.192 112.446 94.752 111.39 93.312C 110.526 92.064 109.422 90.96 108.078 90C 106.83 88.944 105.534 88.08 104.19 87.408C 102.942 86.64 101.694 86.064 100.446 85.68C 99.1983 85.2 98.1903 84.864 97.4223 84.672C 96.5583 84.48 95.8863 83.904 95.4062 82.944C 95.0222 81.888 94.8782 80.832 94.9742 79.776C 94.9742 78.624 95.3102 77.616 95.9822 76.752C 96.7502 75.792 97.8543 75.312 99.2943 75.312C 102.174 75.312 105.246 74.88 108.51 74.016C 111.87 73.056 114.846 71.808 117.438 70.272ZM 129.451 75.744C 129.739 73.824 130.555 72.384 131.899 71.424C 133.243 70.464 134.587 69.936 135.931 69.84C 137.371 69.744 138.619 70.032 139.675 70.704C 140.731 71.376 141.163 72.432 140.971 73.872C 140.779 75.216 140.491 76.752 140.107 78.48C 139.819 80.112 139.531 81.792 139.243 83.52C 138.955 85.152 138.715 86.736 138.523 88.272C 138.427 89.712 138.427 90.912 138.523 91.872C 139.291 89.28 140.155 86.976 141.115 84.96C 142.171 82.848 143.227 81.072 144.283 79.632C 145.051 78.672 146.107 77.952 147.451 77.472C 148.795 76.896 150.091 76.656 151.339 76.752C 152.587 76.752 153.595 77.088 154.363 77.76C 155.131 78.432 155.275 79.392 154.795 80.64C 154.507 81.504 154.219 82.848 153.931 84.672C 153.739 86.496 153.643 88.368 153.643 90.288C 153.643 92.112 153.739 93.744 153.931 95.184C 154.123 96.528 154.459 97.2 154.939 97.2C 155.515 97.2 156.283 96.672 157.243 95.616C 158.203 94.56 159.163 93.312 160.123 91.872C 161.083 90.336 161.947 88.752 162.715 87.12C 163.579 85.392 164.203 83.904 164.587 82.656C 164.779 81.792 165.163 81.216 165.739 80.928C 166.411 80.64 167.035 80.544 167.611 80.64C 168.187 80.736 168.667 81.072 169.051 81.648C 169.435 82.128 169.531 82.8 169.339 83.664C 169.051 85.008 168.379 86.832 167.323 89.136C 166.267 91.44 165.019 93.696 163.579 95.904C 162.139 98.112 160.555 100.08 158.827 101.808C 157.099 103.44 155.419 104.256 153.787 104.256C 151.003 104.256 148.987 103.536 147.739 102.096C 146.587 100.56 145.819 98.88 145.435 97.056C 145.051 95.136 144.907 93.312 145.003 91.584C 145.099 89.76 145.051 88.608 144.859 88.128C 144.379 88.32 143.851 88.992 143.275 90.144C 142.795 91.296 142.315 92.64 141.835 94.176C 141.355 95.712 140.923 97.344 140.539 99.072C 140.155 100.704 139.915 102.096 139.819 103.248C 139.627 104.496 138.955 105.456 137.803 106.128C 136.747 106.704 135.547 106.992 134.203 106.992C 132.955 106.992 131.803 106.656 130.747 105.984C 129.691 105.312 129.211 104.256 129.307 102.816C 129.403 101.184 129.403 99.216 129.307 96.912C 129.211 94.608 129.115 92.208 129.019 89.712C 128.923 87.12 128.875 84.624 128.875 82.224C 128.875 79.824 129.067 77.664 129.451 75.744ZM 186.482 73.44C 186.29 75.84 185.234 77.568 183.314 78.624C 181.49 79.584 179.57 79.824 177.554 79.344C 175.634 78.864 173.858 77.904 172.226 76.464C 170.69 74.928 170.018 73.056 170.21 70.848C 170.402 68.352 171.314 66.624 172.946 65.664C 174.674 64.608 176.642 64.224 178.85 64.512C 181.058 64.992 182.93 66.048 184.466 67.68C 186.002 69.312 186.674 71.232 186.482 73.44ZM 183.602 97.056C 183.794 98.304 183.458 100.176 182.594 102.672C 181.826 105.072 180.77 107.424 179.426 109.728C 178.082 112.032 176.594 113.856 174.962 115.2C 173.426 116.64 171.986 116.88 170.642 115.92C 170.162 115.536 170.066 114.96 170.354 114.192C 170.738 113.424 171.122 112.128 171.506 110.304C 171.986 108.576 172.274 106.224 172.37 103.248C 172.466 100.272 172.034 96.384 171.074 91.584C 170.882 90.528 171.362 89.952 172.514 89.856C 173.666 89.664 175.01 89.856 176.546 90.432C 178.082 91.008 179.57 91.92 181.01 93.168C 182.45 94.32 183.314 95.616 183.602 97.056Z"/>
</defs>
</svg>
