<svg width="138" height="58" viewBox="0 0 138 58" version="1.1" xmlns="http://www.w3.org/2000/svg" xmlns:xlink="http://www.w3.org/1999/xlink">
<title>e.tsn.</title>
<desc>Created using Figma</desc>
<g id="Canvas" transform="translate(-977 460)">
<g id="e.tsn.">
<use xlink:href="#path0_fill" transform="translate(965 -487)" fill="#F9FAFC"/>
</g>
</g>
<defs>
<path id="path0_fill" d="M 36.3278 70.648C 36.8824 70.648 37.3091 70.904 37.6077 71.416C 37.9491 71.928 38.1197 72.632 38.1197 73.528C 38.1197 75.064 37.7571 76.3867 37.0318 77.496C 35.8371 79.3307 34.2584 80.76 32.2957 81.784C 30.3757 82.808 28.0718 83.32 25.3837 83.32C 21.2877 83.32 18.1091 82.104 15.8478 79.672C 13.5864 77.1973 12.4558 73.8693 12.4558 69.688C 12.4558 66.744 13.0744 64.0133 14.3117 61.496C 15.5491 58.936 17.2557 56.9093 19.4318 55.416C 21.6504 53.9227 24.1464 53.176 26.9198 53.176C 29.3944 53.176 31.3784 53.9227 32.8717 55.416C 34.3651 56.8667 35.1118 58.8507 35.1118 61.368C 35.1118 64.312 34.0451 66.8507 31.9118 68.984C 29.8211 71.0747 26.2371 72.7387 21.1598 73.976C 22.1838 75.9387 23.9117 76.92 26.3438 76.92C 28.0931 76.92 29.5224 76.5147 30.6318 75.704C 31.7838 74.8933 33.1064 73.528 34.5998 71.608C 35.1118 70.968 35.6878 70.648 36.3278 70.648ZM 25.8317 59.448C 24.2531 59.448 22.9091 60.3653 21.7997 62.2C 20.7331 64.0347 20.1998 66.2533 20.1998 68.856L 20.1998 68.984C 22.7171 68.3867 24.7011 67.4907 26.1517 66.296C 27.6024 65.1013 28.3278 63.7147 28.3278 62.136C 28.3278 61.3253 28.0931 60.6853 27.6238 60.216C 27.1971 59.704 26.5998 59.448 25.8317 59.448ZM 47.0192 83.32C 45.1419 83.32 43.7126 82.808 42.7313 81.784C 41.7926 80.76 41.3233 79.416 41.3233 77.752C 41.3233 75.832 41.8566 74.296 42.9233 73.144C 44.0326 71.992 45.5686 71.416 47.5312 71.416C 49.4086 71.416 50.8166 71.8853 51.7553 72.824C 52.7366 73.72 53.2272 75.064 53.2272 76.856C 53.2272 78.8187 52.6726 80.3973 51.5632 81.592C 50.4539 82.744 48.9393 83.32 47.0192 83.32ZM 84.3972 68.728C 84.9519 68.728 85.3786 68.984 85.6773 69.496C 86.0186 70.008 86.1893 70.712 86.1893 71.608C 86.1893 73.3147 85.7839 74.6373 84.9733 75.576C 83.1386 77.8373 81.1333 79.6933 78.9573 81.144C 76.7812 82.5947 74.2853 83.32 71.4693 83.32C 62.7653 83.32 58.4132 77.1973 58.4132 64.952C 58.4132 63.0747 58.4772 61.176 58.6052 59.256L 56.1093 59.256C 54.8293 59.256 53.9546 59.0213 53.4853 58.552C 53.0586 58.0827 52.8453 57.336 52.8453 56.312C 52.8453 53.9227 53.8053 52.728 55.7253 52.728L 59.3732 52.728C 60.0986 48.0347 61.2079 43.7467 62.7013 39.864C 64.1946 35.9813 65.9866 32.888 68.0773 30.584C 70.2106 28.28 72.4933 27.128 74.9253 27.128C 76.7173 27.128 78.1252 27.9173 79.1492 29.496C 80.1732 31.0747 80.6852 33.0587 80.6852 35.448C 80.6852 42.0613 77.9119 47.8213 72.3653 52.728L 79.5332 52.728C 80.2159 52.728 80.7066 52.8773 81.0053 53.176C 81.3039 53.4747 81.4532 54.0293 81.4532 54.84C 81.4532 57.784 79.0426 59.256 74.2212 59.256L 66.4133 59.256C 66.3279 61.3893 66.2853 63.0533 66.2853 64.248C 66.2853 68.6853 66.7973 71.8 67.8213 73.592C 68.8879 75.384 70.5519 76.28 72.8132 76.28C 74.6479 76.28 76.2692 75.7253 77.6773 74.616C 79.0853 73.5067 80.7493 71.8427 82.6693 69.624C 83.1813 69.0267 83.7572 68.728 84.3972 68.728ZM 73.1972 33.272C 72.5572 33.272 71.8319 34.0827 71.0213 35.704C 70.2533 37.2827 69.5066 39.5013 68.7812 42.36C 68.0986 45.176 67.5226 48.312 67.0533 51.768C 69.5706 49.592 71.4479 47.16 72.6852 44.472C 73.9652 41.7413 74.6052 39.2667 74.6052 37.048C 74.6052 34.5307 74.1359 33.272 73.1972 33.272ZM 92.8822 84.728C 90.6636 84.728 88.9569 84.216 87.7622 83.192C 86.6102 82.168 86.0343 81.016 86.0343 79.736C 86.0343 78.6267 86.4396 77.6667 87.2502 76.856C 88.0609 76.0453 89.2556 75.64 90.8342 75.64C 91.3889 75.64 92.0289 75.704 92.7542 75.832C 93.5222 75.9173 94.0982 75.9813 94.4822 76.024C 94.4396 74.9147 94.1836 73.8693 93.7142 72.888C 93.2876 71.9067 92.7329 70.968 92.0503 70.072C 91.3676 69.1333 90.7276 68.3227 90.1303 67.64C 88.8076 70.1573 87.4849 72.248 86.1623 73.912C 84.8822 75.576 83.4742 77.1547 81.9382 78.648C 81.1702 79.416 80.3596 79.8 79.5062 79.8C 78.8236 79.8 78.2689 79.5653 77.8423 79.096C 77.4156 78.584 77.2023 77.9653 77.2023 77.24C 77.2023 76.3867 77.5009 75.5973 78.0982 74.872L 78.9303 73.848C 81.2769 70.9467 83.0476 68.5573 84.2422 66.68C 84.9676 65.4427 85.8209 63.8 86.8023 61.752C 87.7836 59.6613 88.7436 57.5067 89.6822 55.288C 90.4929 53.4107 92.1782 52.472 94.7382 52.472C 95.9329 52.472 96.7649 52.5787 97.2343 52.792C 97.7036 53.0053 97.9382 53.3467 97.9382 53.816C 97.9382 54.072 97.8529 54.4773 97.6822 55.032C 97.5116 55.5867 97.2769 56.1413 96.9783 56.696C 96.2103 58.232 95.8263 59.5333 95.8263 60.6C 95.8263 61.24 96.0396 61.944 96.4663 62.712C 96.9356 63.48 97.6396 64.44 98.5782 65.592C 99.9436 67.384 100.968 68.92 101.65 70.2C 102.376 71.4373 102.738 72.8027 102.738 74.296C 102.738 74.7227 102.696 75.32 102.61 76.088C 104.701 75.2773 107.154 73.1227 109.97 69.624C 110.482 69.0267 111.058 68.728 111.698 68.728C 112.253 68.728 112.68 68.984 112.978 69.496C 113.32 70.008 113.49 70.712 113.49 71.608C 113.49 73.2293 113.085 74.552 112.274 75.576C 110.141 78.2213 108.093 80.0347 106.13 81.016C 104.21 81.9547 101.821 82.4667 98.9622 82.552C 97.2556 84.0027 95.2289 84.728 92.8822 84.728ZM 112.835 83.32C 111.213 83.32 110.061 82.4667 109.379 80.76C 108.739 79.0533 108.419 76.3227 108.419 72.568C 108.419 67.0213 109.208 61.752 110.787 56.76C 111.171 55.5227 111.789 54.6267 112.643 54.072C 113.539 53.4747 114.776 53.176 116.355 53.176C 117.208 53.176 117.805 53.2827 118.147 53.496C 118.488 53.7093 118.659 54.1147 118.659 54.712C 118.659 55.3947 118.339 56.9307 117.699 59.32C 117.272 61.0267 116.931 62.52 116.675 63.8C 116.419 65.08 116.205 66.6587 116.035 68.536C 117.443 64.8667 119.021 61.88 120.771 59.576C 122.52 57.272 124.227 55.6293 125.891 54.648C 127.597 53.6667 129.155 53.176 130.563 53.176C 131.928 53.176 132.952 53.5387 133.635 54.264C 134.36 54.9467 134.723 55.9707 134.723 57.336C 134.723 58.4453 134.488 60.536 134.019 63.608C 133.592 66.2107 133.251 68.6853 132.995 71.032C 132.739 73.336 132.611 75.9173 132.611 78.776C 132.611 80.3973 132.269 81.5707 131.587 82.296C 130.947 82.9787 129.88 83.32 128.387 83.32C 126.979 83.32 125.955 82.9573 125.315 82.232C 124.675 81.5067 124.355 80.4187 124.355 78.968C 124.355 77.2613 124.653 74.4453 125.251 70.52C 125.763 67.1067 126.019 64.9307 126.019 63.992C 126.019 63.3093 125.784 62.968 125.315 62.968C 124.76 62.968 123.971 63.6933 122.947 65.144C 121.965 66.552 120.941 68.4293 119.875 70.776C 118.851 73.1227 118.019 75.5973 117.379 78.2C 116.909 80.2053 116.355 81.5707 115.715 82.296C 115.117 82.9787 114.157 83.32 112.835 83.32ZM 143.707 83.32C 141.829 83.32 140.4 82.808 139.419 81.784C 138.48 80.76 138.011 79.416 138.011 77.752C 138.011 75.832 138.544 74.296 139.611 73.144C 140.72 71.992 142.256 71.416 144.219 71.416C 146.096 71.416 147.504 71.8853 148.443 72.824C 149.424 73.72 149.915 75.064 149.915 76.856C 149.915 78.8187 149.36 80.3973 148.251 81.592C 147.141 82.744 145.627 83.32 143.707 83.32Z"/>
</defs>
</svg>
