<svg width="172" height="62" viewBox="0 0 172 62" version="1.1" xmlns="http://www.w3.org/2000/svg" xmlns:xlink="http://www.w3.org/1999/xlink">
<title>e.tsn.</title>
<desc>Created using Figma</desc>
<g id="Canvas" transform="translate(-966 460)">
<g id="e.tsn.">
<use xlink:href="#path0_fill" transform="translate(947 -511)" fill="#F9FAFC"/>
</g>
</g>
<defs>
<path id="path0_fill" d="M 44.8493 82.8C 44.0813 83.856 43.1213 84.72 41.9693 85.392C 40.8173 86.064 39.5693 86.64 38.2253 87.12C 36.8813 87.504 35.4893 87.792 34.0493 87.984C 32.7053 88.176 31.5053 88.32 30.4493 88.416C 30.1613 90.432 29.9693 92.4 29.8733 94.32C 29.8733 96.24 29.9693 97.968 30.1613 99.504C 30.4493 101.04 30.8333 102.336 31.3133 103.392C 31.8893 104.448 32.6573 105.12 33.6173 105.408C 34.8653 105.792 36.2093 105.6 37.6493 104.832C 39.0893 103.968 40.4813 102.816 41.8253 101.376C 43.1693 99.936 44.4653 98.256 45.7133 96.336C 46.9613 94.416 48.0653 92.592 49.0253 90.864C 49.9853 89.04 50.8013 87.408 51.4733 85.968C 52.1453 84.432 52.5773 83.328 52.7693 82.656C 53.0573 81.792 53.4893 81.216 54.0653 80.928C 54.7373 80.64 55.3613 80.544 55.9373 80.64C 56.5133 80.736 56.9933 81.072 57.3773 81.648C 57.7613 82.128 57.8573 82.8 57.6653 83.664C 57.4733 84.24 57.1373 85.392 56.6573 87.12C 56.1773 88.752 55.4573 90.624 54.4973 92.736C 53.6333 94.848 52.5293 97.056 51.1853 99.36C 49.9373 101.568 48.4013 103.632 46.5773 105.552C 44.7533 107.376 42.6413 108.912 40.2413 110.16C 37.9373 111.408 35.3453 112.032 32.4653 112.032C 29.0093 112.032 26.3213 110.832 24.4013 108.432C 22.4813 106.032 21.1853 103.008 20.5133 99.36C 19.8413 95.712 19.7453 91.824 20.2253 87.696C 20.6093 83.472 21.4253 79.536 22.6733 75.888C 24.0173 72.24 25.6493 69.216 27.5693 66.816C 29.5853 64.416 31.7933 63.216 34.1933 63.216C 36.4973 63.216 38.5133 64.032 40.2413 65.664C 42.0653 67.2 43.4573 69.024 44.4173 71.136C 45.3773 73.248 45.9053 75.408 46.0013 77.616C 46.1933 79.824 45.8093 81.552 44.8493 82.8ZM 35.9213 69.984C 35.2493 70.272 34.5293 71.52 33.7613 73.728C 32.9933 75.84 32.2733 78.432 31.6013 81.504C 32.6573 81.504 33.7133 81.408 34.7693 81.216C 35.8253 80.928 36.5933 80.4 37.0733 79.632C 37.4573 79.056 37.6973 78.24 37.7933 77.184C 37.8893 76.032 37.8413 74.88 37.6493 73.728C 37.5533 72.576 37.3133 71.616 36.9293 70.848C 36.6413 70.08 36.3053 69.792 35.9213 69.984ZM 74.6146 99.072C 74.4226 101.472 73.3666 103.2 71.4466 104.256C 69.6226 105.216 67.7026 105.456 65.6866 104.976C 63.7666 104.496 61.9906 103.536 60.3586 102.096C 58.8226 100.56 58.1506 98.688 58.3426 96.48C 58.5346 93.984 59.4466 92.256 61.0786 91.296C 62.8066 90.24 64.7746 89.856 66.9826 90.144C 69.1906 90.624 71.0626 91.68 72.5986 93.312C 74.1346 94.944 74.8066 96.864 74.6146 99.072ZM 79.7637 60.768C 79.7637 60.096 79.7637 59.472 79.7637 58.896C 79.8597 58.224 79.9077 57.648 79.9077 57.168C 79.9077 54.864 80.5317 53.28 81.7797 52.416C 83.0277 51.456 84.3717 51.024 85.8117 51.12C 87.2517 51.216 88.4997 51.744 89.5557 52.704C 90.7077 53.664 91.1397 54.912 90.8517 56.448L 90.1317 60.192L 93.5877 60.192C 95.4117 60.192 96.7077 60.528 97.4757 61.2C 98.3397 61.776 98.7717 62.448 98.7717 63.216C 98.7717 63.888 98.3397 64.512 97.4757 65.088C 96.6117 65.664 95.4117 65.952 93.8757 65.952L 89.5557 65.952C 89.1717 69.408 88.8357 73.248 88.5477 77.472C 88.2597 81.6 88.0677 85.536 87.9717 89.28C 87.8757 92.928 87.9237 96 88.1157 98.496C 88.3077 100.896 88.7397 102.096 89.4117 102.096C 89.9877 102.096 90.7557 101.232 91.7157 99.504C 92.7717 97.776 93.8277 95.808 94.8837 93.6C 95.9397 91.296 96.8997 89.088 97.7637 86.976C 98.6277 84.768 99.2037 83.28 99.4917 82.512C 99.6837 81.648 100.116 81.072 100.788 80.784C 101.46 80.496 102.084 80.448 102.66 80.64C 103.332 80.736 103.86 81.072 104.244 81.648C 104.724 82.128 104.82 82.8 104.532 83.664C 103.956 85.584 103.188 88.08 102.228 91.152C 101.268 94.224 100.068 97.2 98.6277 100.08C 97.1877 102.96 95.4597 105.456 93.4437 107.568C 91.4277 109.68 89.0277 110.736 86.2437 110.736C 84.4197 110.736 82.9317 110.016 81.7797 108.576C 80.6277 107.136 79.7637 105.264 79.1877 102.96C 78.6117 100.56 78.2757 97.824 78.1797 94.752C 77.9877 91.68 77.9397 88.512 78.0357 85.248C 78.1317 81.984 78.3237 78.72 78.6117 75.456C 78.8997 72.096 79.1397 69.024 79.3317 66.24L 75.8757 66.24C 74.3397 66.24 73.1877 65.952 72.4197 65.376C 71.5557 64.8 71.1237 64.176 71.1237 63.504C 71.0277 62.832 71.3637 62.208 72.1317 61.632C 72.8997 61.056 74.1477 60.768 75.8757 60.768L 79.7637 60.768ZM 121.446 70.272C 122.694 69.6 123.942 69.6 125.19 70.272C 126.438 70.944 127.398 71.904 128.07 73.152C 128.742 74.304 128.934 75.552 128.646 76.896C 128.454 78.144 127.494 79.008 125.766 79.488C 124.23 79.872 122.598 80.256 120.87 80.64C 119.238 81.024 117.654 81.36 116.118 81.648C 114.678 81.936 113.43 82.224 112.374 82.512C 111.318 82.704 110.646 82.8 110.358 82.8C 110.55 82.8 111.558 83.088 113.382 83.664C 115.302 84.144 117.318 85.008 119.43 86.256C 121.542 87.408 123.462 88.992 125.19 91.008C 126.918 93.024 127.782 95.568 127.782 98.64C 127.782 102 126.63 104.688 124.326 106.704C 122.022 108.624 119.334 109.92 116.262 110.592C 114.342 110.88 112.47 110.88 110.646 110.592C 108.918 110.304 107.334 109.68 105.894 108.72C 104.55 107.856 103.446 106.656 102.582 105.12C 101.718 103.488 101.286 101.568 101.286 99.36C 101.286 97.536 101.862 96.096 103.014 95.04C 104.262 93.984 105.558 93.312 106.902 93.024C 108.342 92.736 109.59 92.88 110.646 93.456C 111.798 94.032 112.278 95.04 112.086 96.48C 111.606 99.456 111.75 101.616 112.518 102.96C 113.286 104.304 114.054 104.976 114.822 104.976C 115.782 104.976 116.55 104.64 117.126 103.968C 117.798 103.296 118.182 102.432 118.278 101.376C 118.374 100.224 118.182 98.976 117.702 97.632C 117.222 96.192 116.454 94.752 115.398 93.312C 114.534 92.064 113.43 90.96 112.086 90C 110.838 88.944 109.542 88.08 108.198 87.408C 106.95 86.64 105.702 86.064 104.454 85.68C 103.206 85.2 102.198 84.864 101.43 84.672C 100.566 84.48 99.8941 83.904 99.4141 82.944C 99.0301 81.888 98.8861 80.832 98.9821 79.776C 98.9821 78.624 99.3181 77.616 99.9901 76.752C 100.758 75.792 101.862 75.312 103.302 75.312C 106.182 75.312 109.254 74.88 112.518 74.016C 115.878 73.056 118.854 71.808 121.446 70.272ZM 133.459 75.744C 133.747 73.824 134.563 72.384 135.907 71.424C 137.251 70.464 138.595 69.936 139.939 69.84C 141.379 69.744 142.627 70.032 143.683 70.704C 144.739 71.376 145.171 72.432 144.979 73.872C 144.787 75.216 144.499 76.752 144.115 78.48C 143.827 80.112 143.539 81.792 143.251 83.52C 142.963 85.152 142.723 86.736 142.531 88.272C 142.435 89.712 142.435 90.912 142.531 91.872C 143.299 89.28 144.163 86.976 145.123 84.96C 146.179 82.848 147.235 81.072 148.291 79.632C 149.059 78.672 150.115 77.952 151.459 77.472C 152.803 76.896 154.099 76.656 155.347 76.752C 156.595 76.752 157.603 77.088 158.371 77.76C 159.139 78.432 159.283 79.392 158.803 80.64C 158.515 81.504 158.227 82.848 157.939 84.672C 157.747 86.496 157.651 88.368 157.651 90.288C 157.651 92.112 157.747 93.744 157.939 95.184C 158.131 96.528 158.467 97.2 158.947 97.2C 159.523 97.2 160.291 96.672 161.251 95.616C 162.211 94.56 163.171 93.312 164.131 91.872C 165.091 90.336 165.955 88.752 166.723 87.12C 167.587 85.392 168.211 83.904 168.595 82.656C 168.787 81.792 169.171 81.216 169.747 80.928C 170.419 80.64 171.043 80.544 171.619 80.64C 172.195 80.736 172.675 81.072 173.059 81.648C 173.443 82.128 173.539 82.8 173.347 83.664C 173.059 85.008 172.387 86.832 171.331 89.136C 170.275 91.44 169.027 93.696 167.587 95.904C 166.147 98.112 164.563 100.08 162.835 101.808C 161.107 103.44 159.427 104.256 157.795 104.256C 155.011 104.256 152.995 103.536 151.747 102.096C 150.595 100.56 149.827 98.88 149.443 97.056C 149.059 95.136 148.915 93.312 149.011 91.584C 149.107 89.76 149.059 88.608 148.867 88.128C 148.387 88.32 147.859 88.992 147.283 90.144C 146.803 91.296 146.323 92.64 145.843 94.176C 145.363 95.712 144.931 97.344 144.547 99.072C 144.163 100.704 143.923 102.096 143.827 103.248C 143.635 104.496 142.963 105.456 141.811 106.128C 140.755 106.704 139.555 106.992 138.211 106.992C 136.963 106.992 135.811 106.656 134.755 105.984C 133.699 105.312 133.219 104.256 133.315 102.816C 133.411 101.184 133.411 99.216 133.315 96.912C 133.219 94.608 133.123 92.208 133.027 89.712C 132.931 87.12 132.883 84.624 132.883 82.224C 132.883 79.824 133.075 77.664 133.459 75.744ZM 190.49 99.072C 190.298 101.472 189.242 103.2 187.322 104.256C 185.498 105.216 183.578 105.456 181.562 104.976C 179.642 104.496 177.866 103.536 176.234 102.096C 174.698 100.56 174.026 98.688 174.218 96.48C 174.41 93.984 175.322 92.256 176.954 91.296C 178.682 90.24 180.65 89.856 182.858 90.144C 185.066 90.624 186.938 91.68 188.474 93.312C 190.01 94.944 190.682 96.864 190.49 99.072Z"/>
</defs>
</svg>
